<svg xmlns="http://www.w3.org/2000/svg" width="56.897" height="56.986" viewBox="0 0 56.897 56.986"><defs><style>.a{fill:#fff;}</style></defs><g transform="translate(-17.262 -16.462)"><path class="a" d="M48.284,68.537l-2.559-2.559L39.618,59.87,32.2,52.452l-6.378-6.378c-1.035-1.035-2.053-2.082-3.105-3.105l-.046-.046v4.066l2.559-2.559,6.107-6.107L38.755,30.9l6.378-6.378c1.035-1.035,2.082-2.059,3.105-3.105l.046-.046a2.888,2.888,0,0,0,0-4.072,2.9,2.9,0,0,0-2.036-.84,3.02,3.02,0,0,0-2.036.84l-2.559,2.559L35.546,25.97l-7.418,7.418L21.75,39.766c-1.035,1.035-2.082,2.059-3.105,3.105l-.046.046a2.92,2.92,0,0,0,0,4.066c.857.863,1.714,1.714,2.565,2.571l6.107,6.107,7.418,7.418,6.378,6.378c1.035,1.035,2.059,2.082,3.105,3.105l.046.046a2.888,2.888,0,0,0,4.072,0,2.9,2.9,0,0,0,.84-2.036,3.026,3.026,0,0,0-.845-2.036Z" transform="translate(-0.484 0)"/><path class="a" d="M20.139,467.709H69.2c.661,0,1.328.006,1.99,0h.086a2.993,2.993,0,0,0,2.036-.84,2.888,2.888,0,0,0,0-4.072,2.983,2.983,0,0,0-2.036-.84H22.215c-.661,0-1.328-.006-1.99,0h-.086a2.994,2.994,0,0,0-2.036.84,2.888,2.888,0,0,0,0,4.072A3.031,3.031,0,0,0,20.139,467.709Z" transform="translate(0 -419.875)"/></g></svg>