<svg xmlns="http://www.w3.org/2000/svg" width="70.874" height="119.293" viewBox="0 0 70.874 119.293"><defs><style>.a{fill:#ff750c;stroke:#707070;}</style></defs><g transform="translate(0.848 0.778)"><path class="a" d="M8.572,6.94l4.971-4.959A1.161,1.161,0,0,0,11.9.34L6.942,5.311,1.983.34A1.161,1.161,0,0,0,.342,1.981L5.312,6.94.342,11.9a1.161,1.161,0,1,0,1.641,1.641L6.942,8.57,11.9,13.541A1.161,1.161,0,1,0,13.543,11.9Z" transform="translate(0 58.905) rotate(-45)"/><path class="a" d="M8.572,6.94l4.971-4.959A1.161,1.161,0,0,0,11.9.34L6.942,5.311,1.983.34A1.161,1.161,0,0,0,.342,1.981L5.312,6.94.342,11.9a1.161,1.161,0,1,0,1.641,1.641L6.942,8.57,11.9,13.541A1.161,1.161,0,1,0,13.543,11.9Z" transform="translate(9.817 49.087) rotate(-45)"/><path class="a" d="M8.572,6.94l4.971-4.959A1.161,1.161,0,0,0,11.9.34L6.942,5.311,1.983.34A1.161,1.161,0,0,0,.342,1.981L5.312,6.94.342,11.9a1.161,1.161,0,1,0,1.641,1.641L6.942,8.57,11.9,13.541A1.161,1.161,0,1,0,13.543,11.9Z" transform="translate(19.635 39.27) rotate(-45)"/><path class="a" d="M8.572,6.94l4.971-4.959A1.161,1.161,0,0,0,11.9.34L6.942,5.311,1.983.34A1.161,1.161,0,0,0,.342,1.981L5.312,6.94.342,11.9a1.161,1.161,0,1,0,1.641,1.641L6.942,8.57,11.9,13.541A1.161,1.161,0,1,0,13.543,11.9Z" transform="translate(29.452 29.453) rotate(-45)"/><path class="a" d="M8.572,6.94l4.971-4.959A1.161,1.161,0,0,0,11.9.34L6.942,5.311,1.983.34A1.161,1.161,0,0,0,.342,1.981L5.312,6.94.342,11.9a1.161,1.161,0,1,0,1.641,1.641L6.942,8.57,11.9,13.541A1.161,1.161,0,1,0,13.543,11.9Z" transform="translate(39.269 19.635) rotate(-45)"/><path class="a" d="M8.572,6.94l4.971-4.959A1.161,1.161,0,0,0,11.9.34L6.942,5.311,1.983.34A1.161,1.161,0,0,0,.342,1.981L5.312,6.94.342,11.9a1.161,1.161,0,1,0,1.641,1.641L6.942,8.57,11.9,13.541A1.161,1.161,0,1,0,13.543,11.9Z" transform="translate(49.086 9.818) rotate(-45)"/><g transform="translate(69.248 58.904) rotate(90)"><path class="a" d="M8.572,6.94l4.971-4.959A1.161,1.161,0,0,0,11.9.34L6.942,5.311,1.983.34A1.161,1.161,0,0,0,.342,1.981L5.312,6.94.342,11.9a1.161,1.161,0,1,0,1.641,1.641L6.942,8.57,11.9,13.541A1.161,1.161,0,1,0,13.543,11.9Z" transform="translate(0 49.087) rotate(-45)"/><path class="a" d="M8.572,6.94l4.971-4.959A1.161,1.161,0,0,0,11.9.34L6.942,5.311,1.983.34A1.161,1.161,0,0,0,.342,1.981L5.312,6.94.342,11.9a1.161,1.161,0,1,0,1.641,1.641L6.942,8.57,11.9,13.541A1.161,1.161,0,1,0,13.543,11.9Z" transform="translate(9.817 39.27) rotate(-45)"/><path class="a" d="M8.572,6.94l4.971-4.959A1.161,1.161,0,0,0,11.9.34L6.942,5.311,1.983.34A1.161,1.161,0,0,0,.342,1.981L5.312,6.94.342,11.9a1.161,1.161,0,1,0,1.641,1.641L6.942,8.57,11.9,13.541A1.161,1.161,0,1,0,13.543,11.9Z" transform="translate(19.635 29.453) rotate(-45)"/><path class="a" d="M8.572,6.94l4.971-4.959A1.161,1.161,0,0,0,11.9.34L6.942,5.311,1.983.34A1.161,1.161,0,0,0,.342,1.981L5.312,6.94.342,11.9a1.161,1.161,0,1,0,1.641,1.641L6.942,8.57,11.9,13.541A1.161,1.161,0,1,0,13.543,11.9Z" transform="translate(29.452 19.635) rotate(-45)"/><path class="a" d="M8.572,6.94l4.971-4.959A1.161,1.161,0,0,0,11.9.34L6.942,5.311,1.983.34A1.161,1.161,0,0,0,.342,1.981L5.312,6.94.342,11.9a1.161,1.161,0,1,0,1.641,1.641L6.942,8.57,11.9,13.541A1.161,1.161,0,1,0,13.543,11.9Z" transform="translate(39.269 9.818) rotate(-45)"/></g></g></svg>