<svg xmlns="http://www.w3.org/2000/svg" width="69.856" height="104.295" viewBox="0 0 69.856 104.295"><defs><style>.a{fill:none;}.b{fill:#fff;}</style></defs><g transform="translate(-2.372 7)"><path class="a" d="M79.01,5.091a6.719,6.719,0,0,0-7.984,5.154L63.191,46.563,58.2,9.748a6.717,6.717,0,1,0-13.313,1.795l4.167,30.72-1.795.387a6.72,6.72,0,0,0-12.815,2.83v3.162A6.724,6.724,0,0,0,21,48.65v22.53a27.669,27.669,0,1,0,55.338,0V49.393H76.33l7.834-36.317A6.719,6.719,0,0,0,79.01,5.091Z" transform="translate(-18.628 -1.554)"/><g transform="translate(4.167 -7)"><path class="b" d="M48.776,50.257a9.082,9.082,0,0,0-16.317-.324A9.074,9.074,0,0,0,18,57.253v15.02A9.086,9.086,0,0,0,34.522,77.5a9,9,0,0,0,3.557,1.953,2.373,2.373,0,1,0,1.281-4.569,4.359,4.359,0,0,1-3.178-4.19v-16.6a4.35,4.35,0,0,1,8.293-1.834,2.371,2.371,0,0,0,4.3-2ZM31.439,72.274a4.348,4.348,0,0,1-8.7,0V57.253a4.348,4.348,0,1,1,8.7,0Z" transform="translate(-18 -10.157)"/><path class="b" d="M48.328,113.281A30.172,30.172,0,0,1,19.465,91.589a2.369,2.369,0,0,1,4.554-1.312,25.3,25.3,0,0,0,49.606-7.036v-1.51A4.377,4.377,0,0,0,71.451,77.9L52.281,66.829a4.346,4.346,0,0,0-4.348,7.526l12.941,7.471A2.373,2.373,0,1,1,58.5,85.937L45.561,78.474a9.092,9.092,0,1,1,9.091-15.748L73.823,73.794a9.115,9.115,0,0,1,4.546,7.961v1.486A30.078,30.078,0,0,1,48.328,113.281Z" transform="translate(-18.287 -13.614)"/><path class="b" d="M27.091,72.133A9.1,9.1,0,0,1,18,63.042a2.372,2.372,0,1,1,4.743,0,4.356,4.356,0,0,0,4.348,4.348,2.372,2.372,0,1,1,0,4.743ZM84.611,6.1a9.094,9.094,0,0,0-16.53,3.012l-4.98,23.1L59.93,8.795a9.091,9.091,0,1,0-18.016,2.443l2.68,19.787a2.374,2.374,0,1,0,4.7-.64L46.618,10.6a4.348,4.348,0,1,1,8.617-1.17l4.988,36.815a2.369,2.369,0,0,0,4.664.182h.008l7.834-36.317a4.336,4.336,0,0,1,5.162-3.328,4.358,4.358,0,0,1,3.336,5.17L73.4,48.267a1.794,1.794,0,0,0-.063.5v6.1a2.372,2.372,0,1,0,4.743,0v-5.85l7.771-36.072A9.042,9.042,0,0,0,84.611,6.1Z" transform="translate(-18 -0.925)"/></g></g></svg>