<svg xmlns="http://www.w3.org/2000/svg" width="28.448" height="29.151" viewBox="0 0 28.448 29.151"><defs><style>.a{fill:#fff;}</style></defs><path class="a" d="M17.539,17.035c-1,0-1.914,0-3.06,0A12.99,12.99,0,0,1,5.18,13,12.932,12.932,0,0,1,1.7,4.22V.848A1.026,1.026,0,0,0,1.49.283.853.853,0,0,0,.75,0L.55.051a1.611,1.611,0,0,0-.182.1.864.864,0,0,0-.343.5A1.8,1.8,0,0,0,0,.848V4.221A14.735,14.735,0,0,0,6.279,16.174a14.709,14.709,0,0,0,8.238,2.564h3.02l-1.953,1.954a1.118,1.118,0,0,0-.119.149.88.88,0,0,0,.674,1.3.862.862,0,0,0,.579-.184.839.839,0,0,0,.071-.064L20.2,18.489a.718.718,0,0,0,.165-.233.869.869,0,0,0-.1-.9.839.839,0,0,0-.064-.071l-3.408-3.408a.893.893,0,0,0-.65-.248.867.867,0,0,0-.095.01.882.882,0,0,0-.676,1.076.854.854,0,0,0,.124.257.95.95,0,0,0,.093.109l1.954,1.954Z" transform="matrix(0.883, 0.469, -0.469, 0.883, 10.397, 0)"/></svg>