<svg xmlns="http://www.w3.org/2000/svg" width="28.448" height="29.151" viewBox="0 0 28.448 29.151"><defs><style>.a{fill:#fff;}</style></defs><path class="a" d="M17.539,5.111c-1,0-1.914,0-3.06,0A12.814,12.814,0,0,0,1.7,17.926V21.3a1.026,1.026,0,0,1-.215.565.853.853,0,0,1-.74.281l-.2-.049A1.611,1.611,0,0,1,.368,22a.864.864,0,0,1-.343-.5A1.8,1.8,0,0,1,0,21.3V17.924A14.735,14.735,0,0,1,6.279,5.971a14.709,14.709,0,0,1,8.238-2.564h3.02L15.585,1.454a1.118,1.118,0,0,1-.119-.149A.88.88,0,0,1,16.139,0a.862.862,0,0,1,.579.184.84.84,0,0,1,.071.064L20.2,3.657a.718.718,0,0,1,.165.233.869.869,0,0,1-.1.9.839.839,0,0,1-.064.071L16.789,8.269a.893.893,0,0,1-.65.248.868.868,0,0,1-.095-.01.882.882,0,0,1-.676-1.076.854.854,0,0,1,.124-.257.95.95,0,0,1,.093-.109l1.954-1.954Z" transform="matrix(-0.883, 0.469, -0.469, -0.883, 28.448, 19.553)"/></svg>