<svg xmlns="http://www.w3.org/2000/svg" width="133.277" height="102.555" viewBox="0 0 133.277 102.555"><defs><style>.a{fill:#fff;}</style></defs><path class="a" d="M684.866,564.878a9.1,9.1,0,0,1-5.714-2.011l-2.007-1.6a2.567,2.567,0,0,1,3.207-4.008l2.007,1.6a4.051,4.051,0,1,0,5.058-6.33l-1.685-1.347a2.567,2.567,0,1,1,3.207-4.008l1.685,1.347a9.182,9.182,0,0,1-4.714,16.3A9.375,9.375,0,0,1,684.866,564.878Z" transform="translate(-581.298 -487.86)"/><path class="a" d="M579.231,550.2a9.14,9.14,0,0,1-5.724-2l-3.479-2.78a2.566,2.566,0,0,1,3.207-4.008l3.479,2.78a4.052,4.052,0,1,0,5.058-6.331l-19.117-15.273a2.566,2.566,0,1,1,3.206-4.008l19.111,15.273a9.179,9.179,0,0,1-5.741,16.353Z" transform="translate(-485.164 -463.845)"/><path class="a" d="M502.171,594.308a9.113,9.113,0,0,1-5.714-2.011l-4.986-3.984a2.566,2.566,0,1,1,3.207-4.008l4.988,3.984a4.052,4.052,0,1,0,5.058-6.331l-21.678-17.315a2.567,2.567,0,0,1,3.207-4.008L507.93,577.95a9.184,9.184,0,0,1-4.714,16.3A9.4,9.4,0,0,1,502.171,594.308Z" transform="translate(-418.318 -499.162)"/><path class="a" d="M364.657,672.088a9.139,9.139,0,0,1-5.722-2l-25.47-20.352a2.566,2.566,0,0,1,3.207-4.008l25.465,20.352a4.053,4.053,0,1,0,5.06-6.332l-14.132-11.291a2.567,2.567,0,0,1,3.207-4.008L370.4,655.736a9.179,9.179,0,0,1-5.741,16.354Z" transform="translate(-292.72 -569.534)"/><path class="a" d="M242.806,358.047a2.552,2.552,0,0,1-1.642-.6c-8.505-7.1-17.957-30.753-18.356-31.756a2.565,2.565,0,0,1,4.768-1.894c2.581,6.5,10.644,24.511,16.874,29.711a2.565,2.565,0,0,1-1.645,4.536Zm3.053-56.6a2.565,2.565,0,0,1-.619-5.055,29.2,29.2,0,0,1,10.465-.2,2.565,2.565,0,1,1-.755,5.075,24.615,24.615,0,0,0-8.467.106A2.526,2.526,0,0,1,245.858,301.446Z" transform="translate(-200.46 -277.287)"/><path class="a" d="M190.407,244.047a2.565,2.565,0,0,1-1.574-.54L158.5,219.948a2.561,2.561,0,0,1-.212-.184A7.3,7.3,0,0,0,153,217.4c-3.141.051-5.916,2.286-6.873,3.15-1.659,4.38-4.127,7.029-7.343,7.875a8.558,8.558,0,0,1-2.2.289,12.833,12.833,0,0,1-7.7-3.088,2.565,2.565,0,0,1-.4-3.421c3.207-4.489,2.886-11.3,2.876-11.364a2.8,2.8,0,0,1,.01-.434c.574-5.315,5.886-10.487,6.644-11.2a23.393,23.393,0,0,1,12.265-6.253,40.433,40.433,0,0,1,12.887-.232,61.977,61.977,0,0,1,14.4,3.676,2.565,2.565,0,0,1-1.961,4.741h0c-.231-.1-22.97-9.3-34,1.72-.019.021-.04.04-.061.059-1.191,1.122-4.622,4.917-5.055,7.856a26.981,26.981,0,0,1-2.461,12.113,5.131,5.131,0,0,0,3.445.571c2-.537,3.282-3.123,4.008-5.2a2.566,2.566,0,0,1,.563-.92c.192-.2,4.778-4.948,10.808-5.07a12.26,12.26,0,0,1,8.893,3.707l27.533,21.388,2.006-5.031a2.567,2.567,0,1,1,4.77,1.9l-3.269,8.2a2.565,2.565,0,0,1-1.709,1.525A2.615,2.615,0,0,1,190.407,244.047Zm-90.22-6.565a8.938,8.938,0,0,1-5.6-1.961h0l-6.843-5.467a8.978,8.978,0,0,1-1.409-12.619l27.081-33.9a8.978,8.978,0,0,1,12.618-1.411l6.844,5.469a8.978,8.978,0,0,1,1.409,12.618l-27.086,33.9A8.969,8.969,0,0,1,100.187,237.482Zm-2.392-5.969a3.848,3.848,0,0,0,5.408-.6l27.081-33.9a3.848,3.848,0,0,0-.6-5.408l-6.843-5.469a3.848,3.848,0,0,0-5.408.6l-27.094,33.9a3.848,3.848,0,0,0,.6,5.408l6.843,5.467Z" transform="translate(-84.375 -180.163)"/><path class="a" d="M662.911,249.323a8.988,8.988,0,0,1-8.061-5l-19.24-38.888a8.978,8.978,0,0,1,4.064-12.025l7.856-3.885a8.978,8.978,0,0,1,12.025,4.064l19.239,38.888a8.978,8.978,0,0,1-4.064,12.025l-7.856,3.885h0A8.928,8.928,0,0,1,662.911,249.323Zm2.83-3.231ZM651.5,193.723a3.837,3.837,0,0,0-1.7.4l-7.856,3.885a3.848,3.848,0,0,0-1.743,5.156l19.252,38.888a3.848,3.848,0,0,0,5.155,1.741l7.856-3.885a3.848,3.848,0,0,0,1.741-5.155l-19.239-38.888a3.824,3.824,0,0,0-2.216-1.94A3.865,3.865,0,0,0,651.5,193.723Z" transform="translate(-546.45 -187.246)"/></svg>