<svg xmlns="http://www.w3.org/2000/svg" width="59.906" height="57.621" viewBox="0 0 59.906 57.621"><defs><style>.a{fill:none;stroke:#fff;stroke-width:3px;}</style></defs><path class="a" d="M60.2,64.292a.9.9,0,0,0-1.256.224,13.9,13.9,0,0,1-10.026,5.8A13.654,13.654,0,0,1,36.4,63.378a.9.9,0,0,0-1.563.9,15.949,15.949,0,0,0,6.066,5.987A14.835,14.835,0,0,0,48.1,72.151q.469,0,.938-.031c6.785-.444,10.677-5.552,11.389-6.572a.9.9,0,0,0-.224-1.256ZM58.54,47.648a7.376,7.376,0,0,0-6.845,4.59.9.9,0,0,0,1.669.686,5.595,5.595,0,0,1,10.352,0,.9.9,0,0,0,1.669-.686A7.376,7.376,0,0,0,58.54,47.648Zm-16.6,5.276a.9.9,0,0,0,1.669-.686,7.4,7.4,0,0,0-13.691,0,.9.9,0,0,0,1.669.686,5.595,5.595,0,0,1,10.352,0ZM76.406,34.835c0-1.6-2.044-2.467-2.716-2.751a29.825,29.825,0,0,0-6.1-1.625A117.232,117.232,0,0,0,47.953,29h-.366a116.446,116.446,0,0,0-19.274,1.458,29.826,29.826,0,0,0-6.1,1.625c-.672.284-2.716,1.15-2.716,2.751s2.044,2.467,2.716,2.751a25.113,25.113,0,0,0,4.41,1.295,27.311,27.311,0,1,0,42.143.106,26.551,26.551,0,0,0,4.922-1.4C74.362,37.3,76.406,36.436,76.406,34.835Zm-28.816-4.03H47.7a25.413,25.413,0,0,1,17.46,6.972,123.725,123.725,0,0,1-17.2,1.089A121.814,121.814,0,0,1,30.232,37.7a25.411,25.411,0,0,1,17.359-6.894ZM21.3,34.835c0-.013.459-1.375,7.361-2.606,2.393-.427,5.155-.765,8.156-1A27.286,27.286,0,0,0,28.341,37c-.107.107-.211.216-.316.324C21.735,36.124,21.3,34.848,21.3,34.835ZM73.158,56.31A25.505,25.505,0,1,1,28.686,39.276,118.74,118.74,0,0,0,47.953,40.67,120.817,120.817,0,0,0,66.7,39.364,25.4,25.4,0,0,1,73.158,56.31ZM67.372,37.417c-.135-.14-.27-.28-.408-.418a27.279,27.279,0,0,0-8.612-5.83,88.435,88.435,0,0,1,8.889,1.06c6.9,1.231,7.361,2.593,7.361,2.606S74.147,36.192,67.372,37.417Z" transform="translate(-18 -27.5)"/></svg>