<svg xmlns="http://www.w3.org/2000/svg" width="99.527" height="99.546" viewBox="0 0 99.527 99.546"><defs><style>.a{fill:#fff;}</style></defs><path class="a" d="M3.224,2.016A1.777,1.777,0,0,0,2,3.793v95.97a1.777,1.777,0,0,0,1.777,1.777h95.97a1.777,1.777,0,0,0,1.777-1.777V3.793a1.777,1.777,0,0,0-1.777-1.777H3.779A1.777,1.777,0,0,0,3.224,2.016ZM5.556,5.57H97.972V16.233H5.556Zm5.332,3.554A1.777,1.777,0,1,0,12.665,10.9,1.777,1.777,0,0,0,10.888,9.125Zm7.109,0A1.777,1.777,0,1,0,19.774,10.9,1.777,1.777,0,0,0,18,9.125Zm7.109,0A1.777,1.777,0,1,0,26.883,10.9,1.777,1.777,0,0,0,25.106,9.125ZM5.556,19.788H97.972v78.2H5.556Zm5.332,3.554a1.777,1.777,0,1,0,1.777,1.777A1.777,1.777,0,0,0,10.888,23.342Zm8.886,0V26.9H37.546V23.342Zm21.327,0V26.9h7.109V23.342Zm10.663,0V26.9H87.308V23.342ZM10.888,30.451a1.777,1.777,0,1,0,1.777,1.777A1.777,1.777,0,0,0,10.888,30.451Zm8.886,0v3.554h3.554V30.451Zm7.109,0v3.554H55.318V30.451Zm31.99,0v3.554h3.554V30.451Zm7.109,0v3.554H80.2V30.451ZM10.888,37.56a1.777,1.777,0,1,0,1.777,1.777A1.777,1.777,0,0,0,10.888,37.56Zm8.886,0v3.554H48.209V37.56Zm-8.886,7.109a1.777,1.777,0,1,0,1.777,1.777A1.777,1.777,0,0,0,10.888,44.669Zm8.886,0v3.554h7.109V44.669Zm10.663,0v3.554H55.318V44.669ZM10.888,51.778a1.777,1.777,0,1,0,1.777,1.777A1.777,1.777,0,0,0,10.888,51.778Zm23.1,0v3.554H48.209V51.778Zm-23.1,7.109a1.777,1.777,0,1,0,1.777,1.777A1.777,1.777,0,0,0,10.888,58.887Zm23.1,0v3.554H55.318V58.887Zm24.881,0v3.554h3.554V58.887ZM10.888,66a1.777,1.777,0,1,0,1.777,1.777A1.777,1.777,0,0,0,10.888,66Zm23.1,0V69.55H55.318V66Zm24.881,0V69.55h3.554V66ZM10.888,73.1a1.777,1.777,0,1,0,1.777,1.777A1.777,1.777,0,0,0,10.888,73.1Zm23.1,0v3.554H41.1V73.1Zm-23.1,7.109a1.777,1.777,0,1,0,1.777,1.777A1.777,1.777,0,0,0,10.888,80.214Zm8.886,0v3.554H48.209V80.214Zm31.99,0v3.554h7.109V80.214ZM10.888,87.323A1.777,1.777,0,1,0,12.665,89.1,1.777,1.777,0,0,0,10.888,87.323Zm8.886,0v3.554H37.546V87.323Zm21.327,0v3.554H69.536V87.323Z" transform="translate(-1.999 -1.994)"/></svg>