<svg xmlns="http://www.w3.org/2000/svg" width="102.451" height="75.13" viewBox="0 0 102.451 75.13"><defs><style>.a{fill:#fafafa;}</style></defs><g transform="translate(1)"><path class="a" d="M94.913,67.47a1.708,1.708,0,0,1-1.708-1.708V11.123A1.713,1.713,0,0,0,91.5,9.415H12.953a1.713,1.713,0,0,0-1.708,1.708v54.64a1.708,1.708,0,0,1-3.415,0V11.123A5.129,5.129,0,0,1,12.953,6H91.5a5.129,5.129,0,0,1,5.123,5.123v54.64A1.708,1.708,0,0,1,94.913,67.47Zm0,13.66H9.538A8.545,8.545,0,0,1,1,72.593a1.708,1.708,0,0,1,1.708-1.708H40.273a1.708,1.708,0,1,1,0,3.415H4.709a5.129,5.129,0,0,0,4.829,3.415H94.913A5.129,5.129,0,0,0,99.742,74.3H64.178a1.708,1.708,0,1,1,0-3.415h37.565a1.708,1.708,0,0,1,1.708,1.708A8.545,8.545,0,0,1,94.913,81.13Z" transform="translate(-2 -6)"/><path class="a" d="M37.183,60.225H31.039a1.706,1.706,0,0,1-1.667-1.346l-1.011-4.621a20.156,20.156,0,0,1-4.078-1.694L20.3,55.116a1.71,1.71,0,0,1-2.128-.229l-4.34-4.34A1.706,1.706,0,0,1,13.6,48.42l2.551-3.982a20.156,20.156,0,0,1-1.694-4.078L9.842,39.349A1.707,1.707,0,0,1,8.5,37.683V31.539a1.7,1.7,0,0,1,1.342-1.667l4.614-1.011a20.6,20.6,0,0,1,1.7-4.078L13.6,20.8a1.706,1.706,0,0,1,.229-2.128l4.34-4.34a1.71,1.71,0,0,1,2.128-.229l3.985,2.551a20.327,20.327,0,0,1,4.074-1.69l1.011-4.617A1.71,1.71,0,0,1,31.043,9h6.144a1.7,1.7,0,0,1,1.667,1.346l1.011,4.617a20.082,20.082,0,0,1,4.074,1.69L47.923,14.1a1.71,1.71,0,0,1,2.128.229l4.34,4.34A1.706,1.706,0,0,1,54.62,20.8l-2.551,3.985a20.162,20.162,0,0,1,1.69,4.074l4.621,1.011a1.707,1.707,0,0,1,1.342,1.667v6.144a1.7,1.7,0,0,1-1.342,1.667l-4.621,1.011a20.243,20.243,0,0,1-1.69,4.074l2.551,3.985a1.706,1.706,0,0,1-.229,2.128l-4.34,4.347a1.711,1.711,0,0,1-2.131.229l-3.982-2.558a20.034,20.034,0,0,1-4.074,1.69l-1.011,4.624A1.707,1.707,0,0,1,37.183,60.225ZM32.415,56.81H35.81l.939-4.3a1.714,1.714,0,0,1,1.277-1.3,16.792,16.792,0,0,0,5.051-2.093,1.708,1.708,0,0,1,1.824.014l3.7,2.377,2.4-2.4L48.63,45.4a1.71,1.71,0,0,1-.017-1.817,16.834,16.834,0,0,0,2.1-5.051,1.708,1.708,0,0,1,1.3-1.281L56.3,36.31V32.915l-4.293-.939a1.714,1.714,0,0,1-1.3-1.277,16.847,16.847,0,0,0-2.1-5.054,1.7,1.7,0,0,1,.017-1.817L51,20.123l-2.4-2.4L44.9,20.1a1.71,1.71,0,0,1-1.817.017,16.92,16.92,0,0,0-5.054-2.1,1.7,1.7,0,0,1-1.277-1.3l-.939-4.3H32.415l-.939,4.3a1.708,1.708,0,0,1-1.281,1.3,16.762,16.762,0,0,0-5.051,2.1,1.7,1.7,0,0,1-1.817-.017l-3.705-2.373-2.4,2.4L19.6,23.821a1.709,1.709,0,0,1,.014,1.82,16.954,16.954,0,0,0-2.1,5.054,1.7,1.7,0,0,1-1.294,1.274l-4.289.939V36.3l4.293.939a1.713,1.713,0,0,1,1.3,1.281,16.814,16.814,0,0,0,2.093,5.051,1.7,1.7,0,0,1-.014,1.82L17.222,49.1l2.4,2.4,3.705-2.373a1.716,1.716,0,0,1,1.82-.014A16.778,16.778,0,0,0,30.2,51.206a1.708,1.708,0,0,1,1.281,1.3Zm1.694-10.245A11.953,11.953,0,1,1,46.062,34.613a1.708,1.708,0,0,1-3.415,0,8.538,8.538,0,1,0-8.538,8.538,8.859,8.859,0,0,0,1.663-.161,1.707,1.707,0,0,1,.659,3.35A11.8,11.8,0,0,1,34.109,46.565Z" transform="translate(16.113 1.245)"/></g></svg>