<svg xmlns="http://www.w3.org/2000/svg" width="114.982" height="114.982" viewBox="0 0 114.982 114.982"><defs><style>.a{fill:#fff;}</style></defs><g transform="translate(0 0)"><path class="a" d="M60.853,115.159a11.9,11.9,0,0,0,.856,1.061,11.131,11.131,0,0,0,8.155,3.688l21.175.074.159-.015c11.16-1.048,17.845-7.559,17.883-17.418l.01-2.278h10.89V5H5v95.271H49.544Zm41.658-12.636c-.023,6.454-3.985,10.113-11.772,10.889l-20.851-.074a4.479,4.479,0,0,1-3.311-1.533,5.927,5.927,0,0,1-.434-.544L53.774,94.976a3.429,3.429,0,0,1,.278-4.276,2.41,2.41,0,0,1,1.909-.764,2.576,2.576,0,0,1,1.9,1.216l10.2,13.99.191-50.395a2.078,2.078,0,0,1,1.823-2.209h.46l.033-.007a2.145,2.145,0,0,1,1.485,2.185l-.126,33.1,6.57.026.049-13.027a2.421,2.421,0,0,1,.624-1.652,1.61,1.61,0,0,1,1.206-.557,2.077,2.077,0,0,1,1.812,2.224l-.049,12.931v.094l3.285.013,3.285.013.044-11.86a2.415,2.415,0,0,1,.624-1.651,1.643,1.643,0,0,1,1.2-.555h.007a1.638,1.638,0,0,1,1.2.565,2.4,2.4,0,0,1,.611,1.657L92.355,87.89l6.57.026.036-9.223a2.406,2.406,0,0,1,.624-1.652,1.872,1.872,0,0,1,1.2-.557,2.05,2.05,0,0,1,1.812,2.222l-.09,23.818ZM11.57,11.57H113.411V28H11.57ZM46.651,93.7H11.57V34.567H113.411V93.7h-4.3l.056-14.969a8.605,8.605,0,0,0-8.358-8.817h-.031a8.029,8.029,0,0,0-3.533.839,9,9,0,0,0-.629-.828,8.139,8.139,0,0,0-6.007-2.684h-.033a8.038,8.038,0,0,0-4.353,1.3,8.167,8.167,0,0,0-5.821-2.513h-.031a8.123,8.123,0,0,0-1.79.21l.044-11.5a8.606,8.606,0,0,0-8.359-8.817h-.453l-.215.059a8.636,8.636,0,0,0-7.914,8.739l-.117,30.8a8.876,8.876,0,0,0-12.242.616A9.873,9.873,0,0,0,46.651,93.7Z" transform="translate(-5 -5)"/><path class="a" d="M98.415,12h6.57v6.57h-6.57ZM80.346,12h6.57v6.57h-6.57ZM62.278,12h6.57v6.57h-6.57ZM13,36.639H49.137v6.57H13Zm0,18.89H49.137V62.1H13Zm0,18.89H32.711v6.57H13Z" transform="translate(0.141 -0.502)"/></g></svg>