<svg xmlns="http://www.w3.org/2000/svg" width="102.873" height="98.586" viewBox="0 0 102.873 98.586"><defs><style>.a{fill:#fff;}</style></defs><g transform="translate(0 0)"><circle class="a" cx="2.058" cy="2.058" r="2.058" transform="translate(8.734 6.934)"/><ellipse class="a" cx="2.315" cy="2.058" rx="2.315" ry="2.058" transform="translate(16.966 6.934)"/><circle class="a" cx="2.058" cy="2.058" r="2.058" transform="translate(25.712 6.934)"/><path class="a" d="M20.94,49.785v.257h0v.171a1.308,1.308,0,0,0,.107.257l.107.193a1.028,1.028,0,0,0,.193.236s0,.107,0,.15h.107l.107.129h.107l.236.129.214.107h.15a1.951,1.951,0,0,0,.493,0h0a2.144,2.144,0,0,0,.514,0l24.261-6.065a2.143,2.143,0,0,0,1.5-1.393l2.872-8.573,8.744-8.744a2.143,2.143,0,0,0,0-3.022L48.93,11.722a2.143,2.143,0,0,0-3.022,0l-8.744,8.744-8.573,2.872a2.143,2.143,0,0,0-1.393,1.5L21.069,49.1h0v.257ZM47.3,16.266l9.109,9.109L50.344,31.44l-9.109-9.109Zm-16.4,10.716,6.73-2.143L47.88,35.083l-2.143,6.73-15.6,3.9,4.929-4.929a4.479,4.479,0,0,0,1.007.107A4.286,4.286,0,1,0,31.785,36.6a4.479,4.479,0,0,0,.15,1.093l-4.929,4.929Z" transform="translate(23.938 10.889)"/><path class="a" d="M96.443,1H6.43A6.43,6.43,0,0,0,0,7.43V97.443a2.143,2.143,0,0,0,2.143,2.143H100.73a2.143,2.143,0,0,0,2.143-2.143V7.43A6.43,6.43,0,0,0,96.443,1ZM4.286,7.43A2.143,2.143,0,0,1,6.43,5.286H96.443A2.143,2.143,0,0,1,98.586,7.43v6.43H4.286Zm94.3,87.87H4.286V18.145h94.3Z" transform="translate(0 -1)"/><path class="a" d="M21.585,48.926c.15.257.321.493.493.75a4.286,4.286,0,0,0,4.072,5.787,4.436,4.436,0,0,0,1.5-.279l.75.493L41.86,69.136A2.152,2.152,0,1,0,44.9,66.093l-7.265-7.244c.729,0,1.436.107,2.143.107a21.432,21.432,0,0,0,12.088-3.772,4.522,4.522,0,0,0,1.5.279,4.286,4.286,0,0,0,3.043-7.33h0a4.286,4.286,0,0,0-6.065,0,4.393,4.393,0,0,0-1.2,3.729,17.145,17.145,0,0,1-18.153.407l-.664-.664a4.286,4.286,0,0,0-1.2-3.472h0a4.286,4.286,0,0,0-3.472-1.2l-.643-.664A17.145,17.145,0,0,1,25.4,28.116h.686a4.244,4.244,0,0,0,3.022-7.265h0a4.213,4.213,0,0,0-7.244,3.043,3.986,3.986,0,0,0,.3,1.5,21.432,21.432,0,0,0-3.751,14.359L12.67,34.01a2.152,2.152,0,0,0-3.043,3.043Z" transform="translate(10.284 20.6)"/></g></svg>