<svg xmlns="http://www.w3.org/2000/svg" width="81.086" height="81.086" viewBox="0 0 81.086 81.086"><defs><style>.a{fill:none;stroke:#fff;stroke-width:5px;}.b{fill:#fefefe;fill-rule:evenodd;}</style></defs><g transform="translate(2.5 2.5)"><rect class="a" width="76.086" height="76.086" rx="10"/><path class="b" d="M31.972,50.675H24.621V45.054h7.351A2.956,2.956,0,0,1,35,48.081,2.892,2.892,0,0,1,31.972,50.675ZM42.35,59.755a7.17,7.17,0,0,0-4.756-6.918,8.822,8.822,0,0,0,3.459-6.486A7.577,7.577,0,0,0,33.7,39H19V68.4H33.7A8.674,8.674,0,0,0,42.35,59.755Zm7.351-1.73H66.132v-.432A11.164,11.164,0,0,0,54.89,46.351c-6.486,0-10.81,5.189-10.81,11.243A10.447,10.447,0,0,0,54.89,68.4c6.486,0,9.945-3.892,10.81-8.648H59.646c-.432,2.594-2.162,4.324-4.756,4.324S50.133,61.485,49.7,58.026Zm9.945-2.594H50.133c.432-3.027,2.162-4.756,4.756-4.756S59.214,52.837,59.646,55.431ZM48.4,40.73H61.376v4.324H48.4Zm-23.782,14.7h7.351c1.73,0,4.756.432,4.756,3.459,0,1.73-1.3,3.892-3.027,3.892H24.621Z" transform="translate(-5.1 -16.32)"/></g></svg>