<svg xmlns="http://www.w3.org/2000/svg" width="81.086" height="81.086" viewBox="0 0 81.086 81.086"><defs><style>.a{fill:#2d36b7;}.a,.b,.c{stroke:#fff;}.b{fill:#fff;}.c{fill:none;stroke-width:5px;}</style></defs><g transform="translate(2.5 2.5)"><g transform="translate(15.884 15.364)"><ellipse class="a" cx="20.895" cy="20.895" rx="20.895" ry="20.895" transform="translate(2.253 2.253)"/><path class="b" d="M2,25.217A22.743,22.743,0,0,1,5.111,13.562a23.054,23.054,0,0,1,8.451-8.451A22.743,22.743,0,0,1,25.217,2,22.743,22.743,0,0,1,36.871,5.111a23.051,23.051,0,0,1,8.451,8.451,22.743,22.743,0,0,1,3.111,11.655,22.743,22.743,0,0,1-3.111,11.655,23.051,23.051,0,0,1-8.451,8.451,22.742,22.742,0,0,1-11.655,3.111,22.743,22.743,0,0,1-11.655-3.111,23.054,23.054,0,0,1-8.451-8.451A22.743,22.743,0,0,1,2,25.217Zm3.854,0A18.722,18.722,0,0,0,10.73,37.986a26.578,26.578,0,0,1,7.058-8.311,23.082,23.082,0,0,1,9.426-4.968q-.7-1.626-1.347-2.925A56.415,56.415,0,0,1,8.594,24.334q-1.811,0-2.693-.046c0,.123-.007.279-.023.464s-.023.341-.023.464Zm.6-4.783q1.02.094,3.018.093A50.959,50.959,0,0,0,24.2,18.438,47.016,47.016,0,0,0,16.441,7.99a18.852,18.852,0,0,0-6.292,5.154,19.824,19.824,0,0,0-3.691,7.29Zm6.918,20.059a18.975,18.975,0,0,0,18.666,2.786A68.182,68.182,0,0,0,28.42,27.91a19.8,19.8,0,0,0-8.613,4.69,26.339,26.339,0,0,0-6.431,7.894ZM20.48,6.5a49.344,49.344,0,0,1,7.568,10.54,23.123,23.123,0,0,0,9.519-6.733A18.821,18.821,0,0,0,25.217,5.854,17.823,17.823,0,0,0,20.48,6.5Zm9.24,13.837q.7,1.487,1.579,3.761,3.437-.324,7.476-.325,2.88,0,5.711.139a18.643,18.643,0,0,0-4.55-11.237,22.975,22.975,0,0,1-10.215,7.661Zm2.74,7.011a66.577,66.577,0,0,1,3.2,14.116,19.374,19.374,0,0,0,5.99-6.083,18.754,18.754,0,0,0,2.786-8.033q-3.388-.233-6.176-.232-2.553,0-5.8.232Z" transform="translate(-2 -2)"/></g><rect class="c" width="76.086" height="76.086" rx="10" transform="translate(0)"/></g></svg>