<svg xmlns="http://www.w3.org/2000/svg" width="81.086" height="81.086" viewBox="0 0 81.086 81.086"><defs><style>.a{fill:none;stroke:#fff;stroke-width:5px;}.b{fill:#fff;}</style></defs><g transform="translate(2.5 2.5)"><rect class="a" width="76.086" height="76.086" rx="10"/><path class="b" d="M19.429,41.925a2.1,2.1,0,0,0-2.478-2.063c-2.747.5-6.215.58-7.137-2.01a11.976,11.976,0,0,0-3.854-5.067,2.519,2.519,0,0,1-.349-.23A2.1,2.1,0,0,0,3.657,31.2h-.01a2.1,2.1,0,0,0-2.1,2.088c-.008,1.711,1.7,2.807,2.4,3.178a9.318,9.318,0,0,1,1.938,2.852c.764,2.147,2.985,5.405,9.37,4.985,0,.074,0,.143.005.207l.009.561a2.1,2.1,0,0,0,4.2,0l-.01-.668C19.443,44.007,19.429,43.431,19.429,41.925ZM41.811,10.187c.067-.262.132-.553.19-.881A13.172,13.172,0,0,0,41.144,2.4a2.1,2.1,0,0,0-1.292-1.217C39.1.927,36.347.431,31.073,3.8a29.1,29.1,0,0,0-13.332,0C12.488.481,9.744.932,9,1.169A2.093,2.093,0,0,0,7.68,2.395a13.219,13.219,0,0,0-.846,7.043c.051.268.107.516.164.744a13.154,13.154,0,0,0-2.634,8.034,17.671,17.671,0,0,0,.089,1.934c.7,9.657,7,12.557,11.381,13.552-.091.262-.174.543-.248.84a2.1,2.1,0,1,0,4.076,1,3.522,3.522,0,0,1,.982-1.842A2.1,2.1,0,0,0,19.5,30.042C12.25,29.215,9.1,26.262,8.63,19.764a13.87,13.87,0,0,1-.071-1.549,8.934,8.934,0,0,1,1.929-5.692,6.341,6.341,0,0,1,.411-.486,2.1,2.1,0,0,0,.394-2.149,7.108,7.108,0,0,1-.326-1.166,8.589,8.589,0,0,1,.165-3.389A15.826,15.826,0,0,1,16.2,7.808a2.117,2.117,0,0,0,1.737.279,24.711,24.711,0,0,1,12.952,0A2.11,2.11,0,0,0,32.632,7.8a15.888,15.888,0,0,1,5.047-2.5,8.476,8.476,0,0,1,.183,3.311,6.724,6.724,0,0,1-.354,1.275,2.1,2.1,0,0,0,.394,2.149c.162.182.324.379.469.563a8.649,8.649,0,0,1,1.892,5.614,14.768,14.768,0,0,1-.079,1.631c-.462,6.411-3.621,9.366-10.9,10.2a2.1,2.1,0,0,0-1.144,3.664,3.422,3.422,0,0,1,.978,1.906,6.422,6.422,0,0,1,.194,1.719v4.9c-.021,1.358-.021,2.377-.021,2.844a2.1,2.1,0,1,0,4.2,0c0-.455,0-1.453.021-2.811v-4.93a10.243,10.243,0,0,0-.325-2.752,8.931,8.931,0,0,0-.244-.873A13.665,13.665,0,0,0,44.364,20.228a18.249,18.249,0,0,0,.1-2.012,12.863,12.863,0,0,0-2.649-8.028Z" transform="translate(14.428 14.685)"/></g></svg>