<svg xmlns="http://www.w3.org/2000/svg" width="76.469" height="76.475" viewBox="0 0 76.469 76.475"><defs><style>.a{fill:#fff;}</style></defs><g transform="translate(0)"><path class="a" d="M22.471,76.241a28.05,28.05,0,0,1-9.28-1.775,18.774,18.774,0,0,1-6.776-4.412,18.647,18.647,0,0,1-4.408-6.77A27.989,27.989,0,0,1,.23,54C.042,49.925,0,48.62,0,38.235S.042,26.551.23,22.472a27.942,27.942,0,0,1,1.779-9.281A18.627,18.627,0,0,1,6.416,6.417a18.737,18.737,0,0,1,6.776-4.408A27.946,27.946,0,0,1,22.471.23C26.55.043,27.854,0,38.24,0S49.924.047,54,.23a27.946,27.946,0,0,1,9.28,1.779,18.717,18.717,0,0,1,6.771,4.408,18.849,18.849,0,0,1,4.413,6.774,28.067,28.067,0,0,1,1.773,9.281c.188,4.078.23,5.377.23,15.762S76.427,49.919,76.239,54a28.114,28.114,0,0,1-1.773,9.279A19.558,19.558,0,0,1,63.282,74.466,28.106,28.106,0,0,1,54,76.241c-4.074.187-5.378.234-15.763.234S26.55,76.428,22.471,76.241Zm.318-69.13a21.16,21.16,0,0,0-7.1,1.315,11.837,11.837,0,0,0-4.4,2.858,11.875,11.875,0,0,0-2.859,4.4,21.155,21.155,0,0,0-1.314,7.1c-.183,4.031-.224,5.241-.224,15.449s.037,11.424.224,15.456a21.049,21.049,0,0,0,1.314,7.1,11.812,11.812,0,0,0,2.859,4.4,11.953,11.953,0,0,0,4.4,2.859,21.231,21.231,0,0,0,7.1,1.315c4.027.181,5.232.224,15.445.224s11.423-.043,15.45-.224a21.231,21.231,0,0,0,7.1-1.315,12.663,12.663,0,0,0,7.256-7.256,21.177,21.177,0,0,0,1.314-7.1c.188-4.038.224-5.243.224-15.456s-.037-11.418-.224-15.449a21.025,21.025,0,0,0-1.314-7.1,12.66,12.66,0,0,0-7.256-7.26,21.3,21.3,0,0,0-7.1-1.315c-4.032-.183-5.242-.219-15.45-.219S26.816,6.923,22.789,7.11ZM19.018,38.652A19.636,19.636,0,1,1,38.652,58.291,19.634,19.634,0,0,1,19.018,38.652Zm6.891,0A12.746,12.746,0,1,0,38.652,25.909,12.746,12.746,0,0,0,25.909,38.652Z" transform="translate(0)"/><path class="a" d="M17.34,5.462h0Z" transform="translate(25.302 7.275)"/></g></svg>