<svg xmlns="http://www.w3.org/2000/svg" xmlns:xlink="http://www.w3.org/1999/xlink" width="471.759" height="367.509" viewBox="0 0 471.759 367.509"><defs><style>.a,.d,.f,.h,.k,.p{fill:none;}.a{stroke:#a0a4de;}.a,.c,.d,.f,.h,.i,.k{stroke-linecap:round;stroke-linejoin:round;stroke-miterlimit:10;}.a,.m{stroke-width:10px;}.b{fill:rgba(45,54,183,0);}.c{fill:rgba(148,146,226,0.32);}.c,.f,.i{stroke:#1f3969;}.c,.f,.h,.i{stroke-width:4px;}.c,.i{opacity:0.28;}.d{stroke:#2d36b7;stroke-width:6px;}.e{fill:rgba(255,255,255,0.3);}.e,.h,.k{stroke:#fff;}.g{fill:#9492e2;}.i{fill:#1f3969;}.j,.n{fill:#fff;}.k{stroke-width:2px;}.l{fill:rgba(255,255,255,0.16);}.m{fill:rgba(45,54,183,0.89);stroke:rgba(255,255,255,0.55);}.n{font-size:29px;font-family:LeelawadeeUI-Bold, Leelawadee UI;font-weight:700;letter-spacing:0.082em;}.o{stroke:none;}.q{filter:url(#a);}</style><filter id="a" x="320.948" y="223.721" width="150.811" height="143.788" filterUnits="userSpaceOnUse"><feOffset dy="3" input="SourceAlpha"/><feGaussianBlur stdDeviation="7.5" result="b"/><feFlood flood-opacity="0.271"/><feComposite operator="in" in2="b"/><feComposite in="SourceGraphic"/></filter></defs><g transform="translate(-717.705 -3440.274)"><g transform="translate(722.705 3442.274)"><g transform="translate(0 0)"><g transform="translate(0 0)"><path class="a" d="M742.39,645.351H370.053a14.14,14.14,0,0,1-14.139-14.139V388.485a14.14,14.14,0,0,1,14.139-14.139H742.39a14.14,14.14,0,0,1,14.139,14.139V631.211A14.139,14.139,0,0,1,742.39,645.351Z" transform="translate(-355.914 -340.539)"/><path class="b" d="M733.468,391.346V597.063H372.914V391.346Z" transform="translate(-352.883 -337.508)"/><path class="c" d="M383.928,374.346v211.33a15.06,15.06,0,0,0,2.542,8.626,7.67,7.67,0,0,0,6.138,3.573h205.15A7.67,7.67,0,0,0,603.9,594.3a15.06,15.06,0,0,0,2.542-8.626V374.346Z" transform="translate(-357.27 -320.816)"/><path class="d" d="M512.468,585.048h31.686" transform="translate(-328.003 -302.975)"/><path class="e" d="M625.135,605.209H402.354a8.419,8.419,0,0,1-6.666-3.7,15.1,15.1,0,0,1-2.761-8.938V358.293a15.1,15.1,0,0,1,2.761-8.937,8.42,8.42,0,0,1,6.666-3.7h222.78a8.419,8.419,0,0,1,6.666,3.7,15.1,15.1,0,0,1,2.761,8.937V592.572a16.443,16.443,0,0,1-.718,4.836,13.516,13.516,0,0,1-2.043,4.1,9.764,9.764,0,0,1-3.058,2.74A7.4,7.4,0,0,1,625.135,605.209Z" transform="translate(-349.315 -345.654)"/><path class="f" d="M634.562,368.576H392.928v-13.5a9.426,9.426,0,0,1,9.426-9.426h222.78a9.426,9.426,0,0,1,9.426,9.426v13.5Z" transform="translate(-349.315 -345.654)"/><path class="g" d="M634.562,373.065H392.928V355.08a9.426,9.426,0,0,1,9.426-9.426h222.78a9.426,9.426,0,0,1,9.426,9.426Z" transform="translate(-349.315 -345.654)"/><path class="f" d="M634.562,373.065H392.928V355.08a9.426,9.426,0,0,1,9.426-9.426h222.78a9.426,9.426,0,0,1,9.426,9.426v17.985Z" transform="translate(-349.315 -345.654)"/><path class="h" d="M634.562,373.065H392.928V355.08a9.426,9.426,0,0,1,9.426-9.426h222.78a9.426,9.426,0,0,1,9.426,9.426v17.985Z" transform="translate(-349.315 -345.654)"/><path class="h" d="M625.135,605.209H402.354a8.419,8.419,0,0,1-6.666-3.7,15.1,15.1,0,0,1-2.761-8.938V358.293a15.1,15.1,0,0,1,2.761-8.937,8.42,8.42,0,0,1,6.666-3.7h222.78a8.419,8.419,0,0,1,6.666,3.7,15.1,15.1,0,0,1,2.761,8.937V592.572a16.443,16.443,0,0,1-.718,4.836,13.516,13.516,0,0,1-2.043,4.1,9.764,9.764,0,0,1-3.058,2.74,7.4,7.4,0,0,1-3.607.962Z" transform="translate(-349.315 -345.654)"/><path class="i" d="M710.8,570.116H574.1a9.426,9.426,0,0,1-9.426-9.426V415.826A9.426,9.426,0,0,1,574.1,406.4H710.8a9.426,9.426,0,0,1,9.426,9.426V560.69a9.426,9.426,0,0,1-9.426,9.426Z" transform="translate(-305.564 -342.72)"/><path class="h" d="M718.8,563.116H582.1a9.426,9.426,0,0,1-9.426-9.426V408.826A9.426,9.426,0,0,1,582.1,399.4H718.8a9.426,9.426,0,0,1,9.426,9.426V553.69a9.426,9.426,0,0,1-9.426,9.426Z" transform="translate(-317.27 -336.072)"/><path class="h" d="M592.69,497.23H700.978M592.69,509.945H700.978M592.69,522.659h65.957" transform="translate(-313.701 -318.631)"/><path class="h" d="M592.69,497.23H700.978M592.69,509.945H700.978M592.69,522.659h65.957" transform="translate(-313.701 -404.517)"/><path class="j" d="M413.713,362.712A4.713,4.713,0,1,0,409,358,4.713,4.713,0,0,0,413.713,362.712Z" transform="translate(-346.45 -344.293)"/><path class="j" d="M427.6,362.712A4.713,4.713,0,1,0,422.886,358,4.713,4.713,0,0,0,427.6,362.712Z" transform="translate(-343.974 -344.293)"/><path class="j" d="M441.485,362.712A4.713,4.713,0,1,0,436.772,358,4.713,4.713,0,0,0,441.485,362.712Z" transform="translate(-341.499 -344.293)"/><path class="k" d="M510.741,387.379h15.233" transform="translate(-328.311 -338.215)"/><path class="k" d="M444.772,387.379H511.2" transform="translate(-340.072 -338.215)"/><path class="k" d="M417,387.379h23.3m7.07,116.13H498.1" transform="translate(-345.024 -338.215)"/><path class="k" d="M417,387.379h23.3m7.07,116.13H498.1" transform="translate(-345.024 -301.803)"/><path class="k" d="M417,485.938h16.36" transform="translate(-345.024 -320.644)"/><path class="k" d="M417,485.938h16.36" transform="translate(-345.024 -284.232)"/><path class="k" d="M501.149,399.7h9.444" transform="translate(-330.021 -336.019)"/><path class="k" d="M464.279,399.7H496.36" transform="translate(-336.595 -336.019)"/><path class="k" d="M426.886,399.7h32.69" transform="translate(-343.261 -336.019)"/><path class="k" d="M469.83,412.019h28.088" transform="translate(-335.605 -333.822)"/><path class="k" d="M439.769,412.019h26.49" transform="translate(-340.964 -333.822)"/><path class="k" d="M473.009,424.339h5.818" transform="translate(-335.038 -331.626)"/><path class="k" d="M453.189,424.339h13.067" transform="translate(-338.572 -331.626)"/><path class="k" d="M426.886,424.339h21.075" transform="translate(-343.261 -331.626)"/><path class="k" d="M465.288,436.659h37.58" transform="translate(-336.415 -329.43)"/><path class="k" d="M426.886,436.659h33.731" transform="translate(-343.261 -329.43)"/><path class="k" d="M502.182,448.979h20.435" transform="translate(-329.837 -327.233)"/><path class="k" d="M465.288,448.979h32.7" transform="translate(-336.415 -327.233)"/><path class="k" d="M439.769,448.979H458.32" transform="translate(-340.964 -327.233)"/><path class="k" d="M477.893,461.3h17.844" transform="translate(-334.168 -325.037)"/><path class="k" d="M439.769,461.3h32.69" transform="translate(-340.964 -325.037)"/><path class="k" d="M517.205,473.618H537.58" transform="translate(-327.159 -322.841)"/><path class="k" d="M517.205,473.618H537.58" transform="translate(-327.159 -286.428)"/><path class="k" d="M464.279,473.618h51.336" transform="translate(-336.595 -322.841)"/><path class="k" d="M464.279,473.618h51.336" transform="translate(-336.595 -286.428)"/><path class="k" d="M426.886,473.618h32.69" transform="translate(-343.261 -322.841)"/><path class="k" d="M426.886,473.618h32.69" transform="translate(-343.261 -286.428)"/><path class="l" d="M718.8,563.116H582.1a9.426,9.426,0,0,1-9.426-9.426V408.826A9.426,9.426,0,0,1,582.1,399.4H718.8a9.426,9.426,0,0,1,9.426,9.426V553.69a9.426,9.426,0,0,1-9.426,9.426Z" transform="translate(-317.27 -337.617)"/></g></g></g><g transform="translate(1061.153 3683.495)"><g class="q" transform="matrix(1, 0, 0, 1, -343.45, -243.22)"><g class="m" transform="translate(343.45 243.22)"><rect class="o" width="105.81" height="98.788" rx="20"/><rect class="p" x="5" y="5" width="95.81" height="88.788" rx="15"/></g></g><text class="n" transform="translate(80.616 60.412)"><tspan x="-58.621" y="0">&lt;/&gt;</tspan></text></g></g></svg>