<svg xmlns="http://www.w3.org/2000/svg" xmlns:xlink="http://www.w3.org/1999/xlink" width="523.292" height="379.278" viewBox="0 0 523.292 379.278"><defs><style>.a{fill:#2d36b7;}.b{fill:rgba(255,255,255,0.16);}.c{fill:#d0d1e9;}.d{fill:rgba(255,255,255,0.74);}.e{fill:#484faa;stroke:rgba(255,255,255,0.55);stroke-width:10px;}.f{fill:rgba(236,236,236,0.8);}.g,.h,.i,.m{fill:none;}.g,.h{stroke:#d4d4d4;stroke-linecap:round;stroke-width:4px;}.g{stroke-linejoin:round;}.i{stroke:#a0a4de;stroke-width:6px;}.j{fill:#fff;}.k,.l{stroke:none;}.l{fill:rgba(255,255,255,0.55);}.n{filter:url(#e);}.o{filter:url(#c);}.p{filter:url(#a);}</style><filter id="a" x="56.477" y="59.892" width="466.815" height="319.386" filterUnits="userSpaceOnUse"><feOffset dy="3" input="SourceAlpha"/><feGaussianBlur stdDeviation="3" result="b"/><feFlood flood-opacity="0.431"/><feComposite operator="in" in2="b"/><feComposite in="SourceGraphic"/></filter><filter id="c" x="245.534" y="85.486" width="257.778" height="268.198" filterUnits="userSpaceOnUse"><feOffset dy="3" input="SourceAlpha"/><feGaussianBlur stdDeviation="7.5" result="d"/><feFlood/><feComposite operator="in" in2="d"/><feComposite in="SourceGraphic"/></filter><filter id="e" x="0" y="0" width="275.591" height="260.287" filterUnits="userSpaceOnUse"><feOffset dy="3" input="SourceAlpha"/><feGaussianBlur stdDeviation="7.5" result="f"/><feFlood flood-opacity="0.271"/><feComposite operator="in" in2="f"/><feComposite in="SourceGraphic"/></filter></defs><g transform="translate(-671.926 -556.454)"><g transform="translate(41.426 118.405)"><g transform="translate(653 457.549)"><g class="p" transform="matrix(1, 0, 0, 1, -22.5, -19.5)"><g class="a" transform="translate(65.48 65.89)"><path class="k" d="M10.88,0H437.934a10.88,10.88,0,0,1,10.88,10.88V290.506a10.88,10.88,0,0,1-10.88,10.88H10.88A10.88,10.88,0,0,1,0,290.506V10.88A10.88,10.88,0,0,1,10.88,0Z"/><path class="l" d="M 15 15 L 15 286.385986328125 L 433.8148803710938 286.385986328125 L 433.8148803710938 15 L 15 15 M 10.88037109375 0 L 437.9344482421875 0 C 443.9435729980469 0 448.8148803710938 4.87127685546875 448.8148803710938 10.88034057617188 L 448.8148803710938 290.5056457519531 C 448.8148803710938 296.5147094726562 443.9435729980469 301.385986328125 437.9344482421875 301.385986328125 L 10.88037109375 301.385986328125 C 4.871307373046875 301.385986328125 0 296.5147094726562 0 290.5056457519531 L 0 10.88034057617188 C 0 4.87127685546875 4.871307373046875 0 10.88037109375 0 Z"/></g></g><g transform="translate(245.533 85.486)"><g class="o" transform="matrix(1, 0, 0, 1, -268.03, -104.99)"><rect class="b" width="212.778" height="223.198" rx="20" transform="translate(268.03 104.99)"/></g><g transform="translate(20.387 35.02)"><rect class="c" width="57.568" height="16.733" rx="8.367"/><rect class="d" width="139.266" height="16.019" rx="8.01" transform="translate(0 36.844)"/><rect class="d" width="172.016" height="16.019" rx="8.01" transform="translate(0 73.689)"/><rect class="d" width="71.432" height="16.019" rx="8.01" transform="translate(0 109.732)"/><rect class="d" width="172.016" height="16.019" rx="8.01" transform="translate(0 146.577)"/></g></g><g transform="translate(0 0)"><g class="n" transform="matrix(1, 0, 0, 1, -22.5, -19.5)"><g class="e" transform="translate(22.5 19.5)"><rect class="k" width="230.591" height="215.287" rx="20"/><rect class="m" x="5" y="5" width="220.591" height="205.287" rx="15"/></g></g><g transform="translate(24.488 51.016)"><g transform="translate(0 0)"><rect class="f" width="96.93" height="16.325" rx="8.163" transform="translate(0)"/><rect class="f" width="134.682" height="16.325" rx="8.163" transform="translate(0 29.589)"/></g><g transform="translate(0 57.138)"><rect class="f" width="98.971" height="16.325" rx="8.163" transform="translate(0 0)"/><rect class="f" width="136.722" height="16.325" rx="8.163" transform="translate(0 29.589)"/></g><g transform="translate(0 114.275)"><rect class="f" width="181.616" height="16.325" rx="8.163" transform="translate(0 0)"/></g></g></g><path class="g" d="M0,.44l12.615-.1L58.131,0h-9.15" transform="translate(122.158 264.161)"/><line class="h" x2="28.833" y2="0.285" transform="translate(122.158 275.237)"/><line class="h" x2="42.917" transform="translate(122.158 286.869)"/><g class="i" transform="translate(89.574 233.046)"><rect class="k" width="116" height="81" rx="20"/><rect class="m" x="3" y="3" width="110" height="75" rx="17"/></g><path class="j" d="M2,12.547a2.013,2.013,0,0,1,.584-1.429l8.534-8.534a2.041,2.041,0,0,1,2.858,0l5.7,5.7h0l22,22a2.013,2.013,0,0,1,.584,1.429v8.534a2.013,2.013,0,0,1-2.013,2.013H31.708a2.013,2.013,0,0,1-1.53-.584L8.3,19.672h0l-5.716-5.6a2.4,2.4,0,0,1-.443-.664,2.013,2.013,0,0,1,0-.483,1.408,1.408,0,0,1,0-.282ZM32.533,38.23h5.7v-5.7L18.243,12.547l-5.7,5.7ZM9.709,15.4l5.7-5.7L12.547,6.871,6.871,12.547Z" transform="translate(71.412 233.444)"/></g></g></g></svg>