<svg xmlns="http://www.w3.org/2000/svg" width="28" height="28" viewBox="0 0 28 28"><defs><style>.a{fill:#fff;}</style></defs><path class="a" d="M2.334,28A2.333,2.333,0,0,1,0,25.666V2.334A2.333,2.333,0,0,1,2.334,0H25.666A2.333,2.333,0,0,1,28,2.334V25.666A2.333,2.333,0,0,1,25.666,28ZM7.6,22.416h7.5a9.239,9.239,0,0,0,2.722-.356A5.518,5.518,0,0,0,19.7,21.1a3.632,3.632,0,0,0,1.077-1.44v0l-.03-.031a4.649,4.649,0,0,0,.35-1.782,4.8,4.8,0,0,0-.768-2.786,3.53,3.53,0,0,0-2.274-1.418v-.053a3.87,3.87,0,0,0,1.726-1.349,3.618,3.618,0,0,0,.6-2.111,3.578,3.578,0,0,0-1.328-3.045,5.651,5.651,0,0,0-3.523-1H7.6Zm3.121-2.448V14.755h5.159a2.949,2.949,0,0,1,2.066.666h.014a2.448,2.448,0,0,1,.74,1.9,2.562,2.562,0,0,1-.74,1.958,2.891,2.891,0,0,1-2.066.692Zm-.019-7.325V8.032h4.775a2.837,2.837,0,0,1,1.824.517,2.172,2.172,0,0,1,.633,1.778,2.134,2.134,0,0,1-.7,1.724h0a2.635,2.635,0,0,1-1.748.592Z"/></svg>