<svg xmlns="http://www.w3.org/2000/svg" width="22.637" height="32.295" viewBox="0 0 22.637 32.295"><defs><style>.a{fill:#fff;}</style></defs><path class="a" d="M1217.806-7958.884a6.162,6.162,0,0,1,0-6.305,6.153,6.153,0,0,1,1.768-1.9,6.15,6.15,0,0,1-2.46-4.924,6.152,6.152,0,0,1,2.665-5.073,6.161,6.161,0,0,1-2.434-4.911,6.167,6.167,0,0,1,5.928-6.163h10.144a6.167,6.167,0,0,1,5.928,6.163,6.162,6.162,0,0,1-2.455,4.927,6.235,6.235,0,0,1,2.686,5.131,6.242,6.242,0,0,1-6.243,6.243,6.217,6.217,0,0,1-3.827-1.311v4.979a6.17,6.17,0,0,1-6.159,6.159q-.121,0-.242,0A6.164,6.164,0,0,1,1217.806-7958.884Zm1.7-3.154a3.825,3.825,0,0,0,3.825,3.833,3.828,3.828,0,0,0,3.831-3.827v-3.827h-3.94A3.829,3.829,0,0,0,1219.51-7962.038Zm13.829-5.994a3.9,3.9,0,0,0,3.9-3.911,3.9,3.9,0,0,0-3.9-3.894,3.9,3.9,0,0,0-3.893,3.65v.508A3.9,3.9,0,0,0,1233.339-7968.032Zm-6.239-.168v-3.388q-.01-.176-.01-.354t.01-.355v-3.539h-3.827a3.82,3.82,0,0,0-3.819,3.819,3.819,3.819,0,0,0,3.632,3.813c.087,0,.174,0,.261,0Zm5.879-9.976c.117-.006.235-.01.354-.01.064,0,.128,0,.192,0a3.831,3.831,0,0,0,3.532-3.818,3.83,3.83,0,0,0-3.641-3.823h-3.92l-.057,7.648ZM1219.633-7982a3.831,3.831,0,0,0,3.641,3.825h3.846l.057-7.648h-3.9A3.83,3.83,0,0,0,1219.633-7982Z" transform="translate(-1216.939 7988.164)"/></svg>