<svg xmlns="http://www.w3.org/2000/svg" width="51.721" height="51.709" viewBox="0 0 51.721 51.709"><defs><style>.a{fill:#fff;}</style></defs><path class="a" d="M51.6,24.435,29.027,1.859a3.331,3.331,0,0,0-4.71,0L19.63,6.547l5.947,5.947a3.954,3.954,0,0,1,5.008,5.041l5.732,5.732A3.957,3.957,0,1,1,33.943,25.5L28.6,20.156V34.224a3.945,3.945,0,1,1-4.682.749,4.22,4.22,0,0,1,1.169-.864v-14.2a4.186,4.186,0,0,1-1.17-.865,3.942,3.942,0,0,1-.79-4.332l-5.83-5.863L1.829,24.331a3.331,3.331,0,0,0,.008,4.711L24.419,51.618a3.334,3.334,0,0,0,4.712,0L51.6,29.146A3.332,3.332,0,0,0,51.6,24.435Z" transform="translate(-0.858 -0.884)"/></svg>