<svg xmlns="http://www.w3.org/2000/svg" width="28.629" height="30.805" viewBox="0 0 28.629 30.805"><defs><style>.a{fill:#fff;}</style></defs><path class="a" d="M13.478,28.3a1.4,1.4,0,0,0-1.653-1.377c-1.832.336-4.146.387-4.761-1.341A7.99,7.99,0,0,0,4.491,22.2a1.681,1.681,0,0,1-.233-.153,1.4,1.4,0,0,0-1.3-.9H2.949a1.4,1.4,0,0,0-1.4,1.393c-.005,1.141,1.135,1.873,1.6,2.12a6.216,6.216,0,0,1,1.293,1.9c.51,1.433,1.992,3.606,6.251,3.326,0,.049,0,.1,0,.138l.006.375a1.4,1.4,0,1,0,2.8,0l-.007-.446C13.487,29.691,13.478,29.307,13.478,28.3ZM28.41,7.128c.044-.175.088-.369.126-.588a8.788,8.788,0,0,0-.571-4.61,1.4,1.4,0,0,0-.862-.812c-.5-.168-2.338-.5-5.857,1.75a19.415,19.415,0,0,0-8.895,0C8.847.653,7.016.953,6.523,1.112a1.4,1.4,0,0,0-.884.818,8.819,8.819,0,0,0-.565,4.7c.034.179.071.344.109.5a8.776,8.776,0,0,0-1.757,5.36,11.789,11.789,0,0,0,.059,1.29c.468,6.443,4.667,8.377,7.593,9.042-.061.175-.116.362-.165.56a1.4,1.4,0,1,0,2.719.67,2.349,2.349,0,0,1,.655-1.229,1.4,1.4,0,0,0-.764-2.443c-4.835-.552-6.934-2.522-7.25-6.857a9.254,9.254,0,0,1-.047-1.033,5.96,5.96,0,0,1,1.287-3.8,4.23,4.23,0,0,1,.274-.324A1.4,1.4,0,0,0,8.05,6.929a4.742,4.742,0,0,1-.217-.778,5.73,5.73,0,0,1,.11-2.261,10.558,10.558,0,0,1,3.381,1.651,1.412,1.412,0,0,0,1.159.186,16.486,16.486,0,0,1,8.641,0,1.408,1.408,0,0,0,1.163-.193,10.6,10.6,0,0,1,3.367-1.666,5.655,5.655,0,0,1,.122,2.209,4.486,4.486,0,0,1-.237.85A1.4,1.4,0,0,0,25.8,8.363c.108.122.216.253.313.376a5.77,5.77,0,0,1,1.262,3.746,9.853,9.853,0,0,1-.053,1.088c-.308,4.277-2.416,6.249-7.273,6.8a1.4,1.4,0,0,0-.763,2.444,2.283,2.283,0,0,1,.653,1.271,4.285,4.285,0,0,1,.129,1.147V28.5c-.014.906-.014,1.586-.014,1.9a1.4,1.4,0,0,0,2.8,0c0-.3,0-.969.014-1.876V25.237a6.833,6.833,0,0,0-.217-1.836,5.958,5.958,0,0,0-.163-.582,9.117,9.117,0,0,0,7.623-8.992,12.175,12.175,0,0,0,.064-1.342A8.582,8.582,0,0,0,28.41,7.128Z" transform="translate(-1.549 -0.997)"/></svg>