<svg xmlns="http://www.w3.org/2000/svg" width="30.724" height="30.006" viewBox="0 0 30.724 30.006"><defs><style>.a{fill:#fff;}.b{fill:none;stroke:#fff;stroke-width:2px;}</style></defs><g transform="translate(0.5 -2.844)"><path class="a" d="M135.78,145.219c-.047-.093-.047-.093-.14-.093h-2.419c-.046,0-.093,0-.093.093a3.644,3.644,0,0,1-.093.977l-3.3,11.585c-.046.14,0,.186.093.186h1.722c.14,0,.186-.047.186-.14l.931-3.49h3.676l.977,3.49c.046.093.093.093.186.093h1.908c.093,0,.093-.047.093-.14Zm-2.606,7.258c.477-1.815,1.117-4.141,1.349-5.49.279,1.4,1.07,4.187,1.4,5.49Zm7.956-6.467a1.21,1.21,0,0,1,2.419,0h0a1.123,1.123,0,0,1-1.21,1.21A1.174,1.174,0,0,1,141.13,146.01Zm.14,2.652a.122.122,0,0,1,.14-.14h1.815a.122.122,0,0,1,.14.14v9.166c0,.093,0,.14-.14.14H141.41a.122.122,0,0,1-.14-.14v-9.166Z" transform="translate(-121.713 -133.456)"/><path class="b" d="M5.266,12.8H23.458a5.274,5.274,0,0,1,5.266,5.266V35.541a5.274,5.274,0,0,1-5.266,5.266H5.266A5.274,5.274,0,0,1,0,35.541V18.067A5.274,5.274,0,0,1,5.266,12.8" transform="translate(0.5 -8.957)"/></g></svg>