<svg xmlns="http://www.w3.org/2000/svg" width="29.037" height="29.037" viewBox="0 0 29.037 29.037"><defs><style>.a{fill:#fff;}.b{fill:#2d36b7;}</style></defs><path class="a" d="M1.408,1.408H30.445V30.445H1.408Z" transform="translate(-1.408 -1.408)"/><path class="b" d="M53.339,67.137c-.213-1.325-1.077-2.437-3.635-3.475-.889-.408-1.88-.7-2.175-1.375a1.5,1.5,0,0,1-.052-.85,1.4,1.4,0,0,1,1.838-.789,2.023,2.023,0,0,1,1.181,1.1c1.253-.811,1.25-.806,2.125-1.364a5.433,5.433,0,0,0-.7-.938A4.094,4.094,0,0,0,48.5,58.2l-.855.111a3.882,3.882,0,0,0-2.059,1.214,3.8,3.8,0,0,0,.69,5.413c1.648,1.237,4.069,1.518,4.378,2.675.3,1.416-1.041,1.874-2.374,1.711a3.112,3.112,0,0,1-2.12-1.612c-1.087.629-1.087.629-2.205,1.272a4.908,4.908,0,0,0,.988,1.344c2.1,2.134,7.367,2.029,8.311-1.2A3.994,3.994,0,0,0,53.339,67.137ZM42.464,58.371H39.748l-.011,7.022a11.486,11.486,0,0,1-.166,3.282,1.526,1.526,0,0,1-1.9.563,2.33,2.33,0,0,1-1-1.04,1.368,1.368,0,0,0-.155-.248L34.31,69.3a4.363,4.363,0,0,0,1.6,1.833,5.272,5.272,0,0,0,3.881.478,3.427,3.427,0,0,0,2.192-1.717c.618-1.14.486-2.52.48-4.046C42.477,63.359,42.464,60.869,42.464,58.371Z" transform="translate(-26.753 -46.964)"/></svg>