<svg xmlns="http://www.w3.org/2000/svg" width="53.112" height="55.326" viewBox="0 0 53.112 55.326"><defs><style>.a{fill:#fff;fill-rule:evenodd;}</style></defs><path class="a" d="M140.919,96.311l-30.706,2.261c-2.475.214-3.338,1.828-3.338,3.762v33.561a7.228,7.228,0,0,0,1.831,4.518l7.218,9.357c1.186,1.507,2.263,1.829,4.527,1.722l35.657-2.152c3.015-.214,3.878-1.614,3.878-3.98V107.607c0-1.225-.485-1.577-1.912-2.619l-.243-.179-9.8-6.884C145.66,96.206,144.69,95.988,140.919,96.311ZM121.26,106.987c-2.912.2-3.572.24-5.226-1.1l-4.2-3.334c-.428-.432-.212-.97.863-1.077l29.52-2.15a6.087,6.087,0,0,1,4.74,1.4l5.064,3.657c.216.109.752.752.107.752l-30.486,1.829Zm-3.4,38.051V112.986c0-1.4.43-2.045,1.722-2.154l35.012-2.043c1.188-.107,1.726.645,1.726,2.043V142.67c0,1.4-.216,2.584-2.158,2.691l-33.5,1.936c-1.938.107-2.8-.537-2.8-2.259Zm33.075-30.333c.214.968,0,1.936-.972,2.047l-1.615.319v23.665a8.412,8.412,0,0,1-3.77,1.182c-1.724,0-2.158-.539-3.449-2.15L130.575,123.2v16.026l3.342.754s0,1.936-2.7,1.936l-7.432.43a1.385,1.385,0,0,1,.756-1.721l1.936-.537V118.9l-2.693-.218a2.013,2.013,0,0,1,1.833-2.473l7.972-.538,10.989,16.782V117.61l-2.8-.321a1.821,1.821,0,0,1,1.724-2.152Z" transform="translate(-106.875 -96.185)"/></svg>