<svg xmlns="http://www.w3.org/2000/svg" width="29.536" height="28.848" viewBox="0 0 29.536 28.848"><defs><style>.a{fill:none;stroke:#fff;stroke-width:2px;}.b{fill:#fff;}</style></defs><g transform="translate(1 1)"><path class="a" d="M5.048,12.8H22.582a4.969,4.969,0,0,1,4.954,4.954V34.693a4.969,4.969,0,0,1-4.954,4.954H4.954A4.969,4.969,0,0,1,0,34.693V17.848A5.056,5.056,0,0,1,5.048,12.8" transform="translate(0 -12.8)"/><path class="b" d="M134.464,148.224c-.9,0-1.176.452-1.176.814s.226.678,1.413,1.311c1.764.848,2.351,1.673,2.351,2.894,0,1.809-1.357,2.8-3.256,2.8a4.8,4.8,0,0,1-2.351-.5c-.09-.045-.09-.09-.09-.181V153.7c0-.09.045-.136.136-.09a4.021,4.021,0,0,0,2.261.678c.9,0,1.266-.362,1.266-.848,0-.407-.283-.769-1.413-1.357-1.583-.769-2.261-1.537-2.261-2.849,0-1.447,1.13-2.668,3.109-2.668a5.321,5.321,0,0,1,2.035.317.164.164,0,0,1,.1.21l-.007.016v1.538c0,.09-.045.136-.181.09a4.143,4.143,0,0,0-1.922-.509h-.011Zm-4.183-.9c0,2.894-2.08,4.115-4.658,4.115h-.848v4.341a.119.119,0,0,1-.136.136h-1.786a.119.119,0,0,1-.136-.1.117.117,0,0,1,0-.037l.045-12.209c0-.09.181-.136.283-.136.724-.045,1.809-.045,2.894-.045C129.049,143.385,130.281,145.1,130.281,147.319Zm-2.058,0c0-1.447-.9-2.171-2.4-2.171a7.047,7.047,0,0,0-1.085.045v4.386h.9C126.969,149.58,128.224,149.128,128.224,147.319Z" transform="translate(-116.217 -135.885)"/></g></svg>