<svg xmlns="http://www.w3.org/2000/svg" width="27.641" height="27.642" viewBox="0 0 27.641 27.642"><defs><style>.a{fill:#fff;}.b{fill:#d8d8ff;}</style></defs><path class="a" d="M11.382,10h6.91a1.382,1.382,0,0,1,1.382,1.382v6.91a1.382,1.382,0,0,1-1.382,1.382h-6.91A1.382,1.382,0,0,1,10,18.292v-6.91A1.382,1.382,0,0,1,11.382,10Z" transform="translate(1.057 1.057)"/><path class="a" d="M13.057,14.439a1.382,1.382,0,0,1,1.382-1.382h4.146V10.292A1.382,1.382,0,0,0,17.2,8.91h-6.91A1.382,1.382,0,0,0,8.91,10.292V17.2a1.382,1.382,0,0,0,1.382,1.382h2.764Zm-8.292,15.2a2.764,2.764,0,1,1,2.764-2.764A2.764,2.764,0,0,1,4.764,29.641Zm0-22.113A2.764,2.764,0,1,1,7.528,4.764,2.764,2.764,0,0,1,4.764,7.528Zm22.113,0a2.764,2.764,0,1,1,2.764-2.764A2.764,2.764,0,0,1,26.877,7.528Zm0,22.113a2.764,2.764,0,1,1,2.764-2.764A2.764,2.764,0,0,1,26.877,29.641Z" transform="translate(-2 -2)"/><path class="b" d="M24.115,5.764a2.676,2.676,0,0,1,0-2.764H6.762a2.676,2.676,0,0,1,0,2.764ZM26.5,23.731a2.736,2.736,0,0,1,1.382.384V6.762a2.676,2.676,0,0,1-2.764,0V24.115A2.736,2.736,0,0,1,26.5,23.731Zm-22.113,0a2.736,2.736,0,0,1,1.382.384V6.762A2.676,2.676,0,0,1,3,6.762V24.115A2.736,2.736,0,0,1,4.382,23.731Zm19.733,1.382H6.762a2.676,2.676,0,0,1,0,2.764H24.115A2.676,2.676,0,0,1,24.115,25.113Z" transform="translate(-1.618 -1.618)"/><path class="a" d="M24.115,5.764a2.676,2.676,0,0,1,0-2.764H6.762a2.676,2.676,0,0,1,0,2.764ZM26.5,23.731a2.736,2.736,0,0,1,1.382.384V6.762a2.676,2.676,0,0,1-2.764,0V24.115A2.736,2.736,0,0,1,26.5,23.731Zm-22.113,0a2.736,2.736,0,0,1,1.382.384V6.762A2.676,2.676,0,0,1,3,6.762V24.115A2.736,2.736,0,0,1,4.382,23.731Zm19.733,1.382H6.762a2.676,2.676,0,0,1,0,2.764H24.115A2.676,2.676,0,0,1,24.115,25.113Z" transform="translate(-1.618 -1.618)"/></svg>