<svg xmlns="http://www.w3.org/2000/svg" width="29.039" height="29.039" viewBox="0 0 29.039 29.039"><defs><style>.a{fill:#fff;}</style></defs><path class="a" d="M36.622,9H10.417A1.421,1.421,0,0,0,9,10.417V13.25H38.039V10.417A1.421,1.421,0,0,0,36.622,9Zm-25,2.621a.7.7,0,1,1-.992-.992.685.685,0,0,1,.992,0,.685.685,0,0,1,0,.992Zm3.046-.354c0,.035-.035.071-.035.142,0,.035-.035.071-.071.106s-.035.071-.071.106-.071.071-.106.071-.071.035-.106.071c-.035,0-.071.035-.142.035h-.283c-.035,0-.071-.035-.142-.035-.035,0-.071-.035-.106-.071s-.071-.035-.106-.071a.618.618,0,0,1-.248-.5v-.142c0-.035.035-.071.035-.142,0-.035.035-.071.071-.106s.035-.071.071-.106.071-.071.106-.071.071-.035.106-.071c.035,0,.071-.035.142-.035a.8.8,0,0,1,.637.177.618.618,0,0,1,.248.5v.142Zm2.621.354a.7.7,0,1,1-.992-.992.685.685,0,0,1,.992,0,.685.685,0,0,1,0,.992ZM9,36.622a1.421,1.421,0,0,0,1.417,1.417H36.622a1.421,1.421,0,0,0,1.417-1.417V14.666H9ZM27.415,17.5a.71.71,0,0,1,.708-.708h7.083a.71.71,0,0,1,.708.708V35.206a.71.71,0,0,1-.708.708H28.123a.71.71,0,0,1-.708-.708Zm-16.29,0a.71.71,0,0,1,.708-.708H24.582a.71.71,0,0,1,.708.708V28.123a.71.71,0,0,1-.708.708H11.833a.71.71,0,0,1-.708-.708Zm0,14.165a.71.71,0,0,1,.708-.708H24.582a.71.71,0,0,1,.708.708v3.541a.71.71,0,0,1-.708.708H11.833a.71.71,0,0,1-.708-.708ZM34.5,34.5H28.831V18.207H34.5Zm-10.624,0H12.541V32.373H23.873Zm0-7.083H12.541V18.207H23.873Z" transform="translate(-9 -9)"/></svg>