<svg xmlns="http://www.w3.org/2000/svg" width="31.774" height="25.619" viewBox="0 0 31.774 25.619"><defs><style>.a{fill:#fff;}</style></defs><path class="a" d="M16.2,9.155H3.577A1.577,1.577,0,0,1,3.577,6H16.2a1.577,1.577,0,0,1,0,3.155Zm0,6.309H3.577a1.577,1.577,0,0,1,0-3.155H16.2a1.577,1.577,0,1,1,0,3.155Z" transform="translate(-2 -2.464)"/><rect class="a" width="13" height="13" rx="1" transform="translate(18.774)"/><path class="a" d="M31.97,17.155H3.577a1.577,1.577,0,0,1,0-3.155H31.97a1.577,1.577,0,0,1,0,3.155ZM19.351,23.464H3.577a1.577,1.577,0,0,1,0-3.155H19.351a1.577,1.577,0,1,1,0,3.155Z" transform="translate(-2 2.155)"/></svg>