<svg xmlns="http://www.w3.org/2000/svg" width="29.588" height="28.484" viewBox="0 0 29.588 28.484"><defs><style>.a{fill:#fff;}.b{fill:none;stroke:#fff;stroke-width:2px;}</style></defs><g transform="translate(0.5 -1.844)"><path class="a" d="M54.291,72.659l-3.482,5.983,3.752,6.37c.077.13.044.193-.1.193h-2.34a.29.29,0,0,1-.288-.155L49.2,80.206h-.02L46.6,85.051a.284.284,0,0,1-.25.155H44.1c-.129,0-.153-.064-.077-.193l3.69-6.2L44.2,72.62c-.077-.1-.051-.155.077-.155h2.345a.264.264,0,0,1,.25.136l2.477,4.787h.019L51.833,72.6a.264.264,0,0,1,.249-.136h2.133C54.356,72.466,54.381,72.53,54.291,72.659Zm5.721,12.783a4.472,4.472,0,0,1-3.239-1.163,4.518,4.518,0,0,1-1.228-3.438,4.621,4.621,0,0,1,1.319-3.4A4.719,4.719,0,0,1,60.342,76a3.493,3.493,0,0,1,.861.092V72.1a.1.1,0,0,1,.11-.111h2.156c.06,0,.091.037.091.111V83.282A9.217,9.217,0,0,0,63.8,84.5a.149.149,0,0,1-.092.166A8.813,8.813,0,0,1,60.013,85.442Zm1.195-1.827V77.909a1.286,1.286,0,0,0-.9-.252,2.31,2.31,0,0,0-1.815.808,3.449,3.449,0,0,0-.826,2.289,3.125,3.125,0,0,0,.815,2.233,2.348,2.348,0,0,0,1.748.8A1.884,1.884,0,0,0,61.208,83.614Z" transform="translate(-39.983 -62.649)"/><rect class="b" width="27.588" height="26.484" rx="5" transform="translate(0.5 2.844)"/></g></svg>